:SAMPLES-PER-SECOND 30
:FULLY-SPECIFIED
:DEGREES
432
root  -5.05665 40.871 -0.461284 -179.597 -78.3356 -178.827
RightUpLeg  4.02783 -1.21681 -1.92291
RightLeg  -1.15503 -8.86402 -0.269656
RightFoot  -2.16094 -0.334045 3.95445
RightToes  -3.10096e-008 1.75238e-005 3.56266e-009
Spine  -6.33698 2.05136 0.482762
Spine1  10.1694 1.19614 3.10801
HEad  -31.2128 5.31606 -5.72788
LeftShoulder1  0.665403 0.821395 -18.2309
LeftArm  -76.8929 46.9466 -32.4709
LeftForeArm  -31.6543 -42.6156 -12.0171
LeftHand  -0.197804 1.16969 5.34129
RightShoulder  3.72488 6.64241 30.8112
RightArm  -19.2193 -26.6065 36.1978
RightForeArm  -24.5906 39.6489 10.6504
RightHand  -0.397732 3.40785 -5.48161
LeftUpLeg  7.86469 1.1304 1.67227
LeftLeg  -6.41313 24.3757 -2.41159
LeftFoot  -0.808061 0.258377 -2.75081
LeftToes  4.7633e-008 1.48299e-008 1.30754e-009
433
root  -5.0122 40.8738 -0.41841 -179.866 -79.8497 -178.881
RightUpLeg  4.55453 -1.42652 -1.99594
RightLeg  -1.23823 -10.1386 -0.117328
RightFoot  -2.18401 -0.341699 4.0791
RightToes  -3.10096e-008 1.75238e-005 3.56266e-009
Spine  -6.66683 2.43384 0.805314
Spine1  11.2379 1.92105 1.78214
HEad  -30.499 4.20022 -3.66284
LeftShoulder1  0.678967 0.920884 -19.7195
LeftArm  -79.4307 47.4586 -38.8051
LeftForeArm  -27.7265 -44.6346 -12.6496
LeftHand  -0.23088 1.02324 6.08545
RightShoulder  3.76765 6.7251 30.9341
RightArm  -20.6726 -28.9199 36.8728
RightForeArm  -23.2528 43.541 11.9987
RightHand  -0.279695 3.03506 -4.08256
LeftUpLeg  7.72369 1.29974 1.84126
LeftLeg  -5.83426 22.6693 -2.17351
LeftFoot  -0.924791 0.252194 -2.70613
LeftToes  4.7633e-008 1.48299e-008 1.30754e-009
434
root  -4.94515 40.8697 -0.389356 -179.753 -81.793 -179.491
RightUpLeg  5.31302 -1.7226 -2.13062
RightLeg  -1.3707 -11.7355 0.0785386
RightFoot  -2.3508 -0.336561 4.07386
RightToes  -3.10096e-008 1.75238e-005 3.56266e-009
Spine  -7.11917 2.73383 1.15882
Spine1  12.6885 2.58749 0.418291
HEad  -29.7427 2.27454 -2.2867
LeftShoulder1  0.899594 0.238766 -21.1547
LeftArm  -81.4362 46.0525 -43.1947
LeftForeArm  -24.7036 -48.1921 -14.1259
LeftHand  -0.293797 1.39633 8.40772
RightShoulder  3.72762 6.65917 30.7775
RightArm  -21.6837 -28.6761 37.3159
RightForeArm  -24.3358 45.8664 13.0353
RightHand  -0.206499 3.15164 -3.03429
LeftUpLeg  7.56849 1.38221 1.90893
LeftLeg  -5.04632 20.6474 -1.79127
LeftFoot  -1.10913 0.236396 -2.56558
LeftToes  4.7633e-008 1.48299e-008 1.30754e-009
435
root  -4.87448 40.8553 -0.380394 -179.55 -83.9652 179.813
RightUpLeg  6.13629 -1.92402 -2.11599
RightLeg  -1.58504 -13.7279 0.265102
RightFoot  -2.52722 -0.320943 3.93863
RightToes  -3.10096e-008 1.75238e-005 3.56266e-009
Spine  -8.23767 2.72073 0.535637
Spine1  14.7627 2.67921 0.272004
HEad  -28.613 1.21263 -1.30948
LeftShoulder1  1.05697 -0.290264 -21.478
LeftArm  -78.3567 45.3026 -46.6911
LeftForeArm  -23.9864 -54.5686 -17.696
LeftHand  -0.380043 1.11515 10.3393
RightShoulder  3.72904 6.68008 30.7153
RightArm  -22.0779 -26.4299 36.696
RightForeArm  -22.1552 49.1148 14.4342
RightHand  -0.302011 3.51357 -4.19078
LeftUpLeg  7.31704 1.44912 2.02369
LeftLeg  -4.1226 18.4056 -1.3238
LeftFoot  -1.36057 0.218054 -2.40454
LeftToes  4.7633e-008 1.48299e-008 1.30754e-009
436
root  -4.7666 40.8513 -0.373778 -177.591 -85.8976 177.576
RightUpLeg  6.35443 -1.91997 -2.0631
RightLeg  -1.25305 -15.6653 0.113994
RightFoot  -2.73027 -0.316782 3.9576
RightToes  -3.10096e-008 1.75238e-005 3.56266e-009
Spine  -8.91821 2.43864 -0.915524
Spine1  15.7705 2.26433 1.16215
HEad  -26.9967 0.992721 -1.55937
LeftShoulder1  1.16715 -0.673901 -21.5512
LeftArm  -72.359 45.466 -48.6705
LeftForeArm  -17.2036 -62.1645 -23.7978
LeftHand  -0.431411 -0.060985 9.2274
RightShoulder  3.7608 6.85782 30.388
RightArm  -21.2204 -22.864 35.1131
RightForeArm  -17.5826 52.9774 16.2984
RightHand  -0.349321 4.10085 -4.53689
LeftUpLeg  7.03225 1.51945 2.09831
LeftLeg  -3.75223 16.3672 -1.22327
LeftFoot  -1.28876 0.212632 -2.32716
LeftToes  4.7633e-008 1.48299e-008 1.30754e-009
437
root  -4.63515 40.8536 -0.342487 -175.155 -87.286 174.984
RightUpLeg  6.41703 -2.06053 -2.12086
RightLeg  -1.09682 -16.9211 0.176062
RightFoot  -2.78862 -0.30913 3.85563
RightToes  -3.10096e-008 1.75238e-005 3.56266e-009
Spine  -9.57969 2.41355 -1.98426
Spine1  16.7404 2.06343 2.08382
HEad  -24.908 0.0125796 -1.45627
LeftShoulder1  1.3546 -1.31973 -21.7205
LeftArm  -62.9498 45.7023 -48.482
LeftForeArm  -2.45608 -69.9965 -34.7841
LeftHand  -0.351079 -0.881043 6.73585
RightShoulder  3.63223 6.83997 29.1777
RightArm  -18.0668 -18.9067 33.2085
RightForeArm  -11.8144 57.7865 19.1888
RightHand  -0.398737 4.66851 -4.89779
LeftUpLeg  6.55264 1.41043 2.0386
LeftLeg  -3.21683 15.0438 -0.962819
LeftFoot  -1.30405 0.207535 -2.26894
LeftToes  4.7633e-008 1.48299e-008 1.30754e-009
438
root  -4.44759 40.8613 -0.3209 -166.463 -88.768 166.229
RightUpLeg  6.43329 -2.08647 -1.99407
RightLeg  -1.23902 -18.4668 0.338127
RightFoot  -2.61361 -0.299539 3.68926
RightToes  -3.10096e-008 1.75238e-005 3.56266e-009
Spine  -9.74336 2.23234 -3.05482
Spine1  17.3852 1.6495 3.14472
HEad  -22.363 -1.23703 -0.844964
LeftShoulder1  1.47648 -1.8197 -21.3637
LeftArm  -50.5466 45.3218 -46.302
LeftForeArm  21.8844 -75.9461 -54.597
LeftHand  -0.255848 -2.65592 3.70578
RightShoulder  3.39863 6.65894 27.4597
RightArm  -12.2256 -14.365 30.6847
RightForeArm  -4.70404 63.1378 23.7676
RightHand  -0.294248 4.90976 -3.58681
LeftUpLeg  5.60843 1.54447 2.26188
LeftLeg  -2.1246 13.275 -0.773203
LeftFoot  -1.50039 0.212808 -2.38278
LeftToes  4.7633e-008 1.48299e-008 1.30754e-009
